<?xml version="1.0" encoding="UTF-8" standalone="no"?>
<!DOCTYPE svg PUBLIC "-//W3C//DTD SVG 1.1//EN" "http://www.w3.org/Graphics/SVG/1.1/DTD/svg11.dtd">
<svg width="100%" height="100%" viewBox="0 0 199 146" version="1.1" xmlns="http://www.w3.org/2000/svg" xmlns:xlink="http://www.w3.org/1999/xlink" xml:space="preserve" xmlns:serif="http://www.serif.com/" style="fill-rule:evenodd;clip-rule:evenodd;stroke-linecap:round;stroke-linejoin:round;stroke-miterlimit:1.5;">
    <g transform="matrix(1,0,0,1,-987.268994,-2407.412365)">
        <g transform="matrix(1,0,0,1,44.189561,326.19827)">
            <g transform="matrix(1,0,0,1.594479,-261.742289,-1244.199257)">
                <path d="M1254.227,2100.975L1254.227,2101.491C1254.227,2103.404 1251.751,2104.956 1248.702,2104.956L1228.507,2104.956C1225.458,2104.956 1222.982,2103.404 1222.982,2101.491L1222.982,2100.975C1222.982,2099.062 1225.458,2097.51 1228.507,2097.51L1248.702,2097.51C1251.751,2097.51 1254.227,2099.062 1254.227,2100.975Z" style="fill:rgb(82,28,13);"/>
            </g>
            <g transform="matrix(1.024691,0,0,1.005789,-292.620452,-10.907496)">
                <path d="M1400.065,2115.658L1400.065,2214.28C1400.065,2220.221 1395.33,2225.045 1389.499,2225.045L1216.491,2225.045C1210.659,2225.045 1205.925,2220.221 1205.925,2214.28L1205.925,2115.658C1205.925,2109.717 1210.659,2104.893 1216.491,2104.893L1389.499,2104.893C1395.33,2104.893 1400.065,2109.717 1400.065,2115.658Z" style="fill:rgb(213,69,27);"/>
            </g>
            <g transform="matrix(1.046855,0,0,1,-321.668646,1.215535)">
                <rect x="1208.14" y="2132.545" width="190.03" height="74.107" style="fill:rgb(82,28,13);"/>
            </g>
            <g transform="matrix(1.05485,0,0,1.117483,-332.315286,-256.950602)">
                <ellipse cx="1304.331" cy="2173.907" rx="47.27" ry="45.215" style="fill:rgb(255,155,69);"/>
            </g>
            <g transform="matrix(1.170643,0,0,1.181996,-484.021621,-404.318679)">
                <circle cx="1304.647" cy="2179.203" r="35.65" style="fill:rgb(82,28,13);"/>
            </g>
            <g transform="matrix(1.240533,0,0,1.284267,-580.26194,-620.355688)">
                <circle cx="1309.153" cy="2172.642" r="23.714" style="fill:rgb(213,69,27);"/>
            </g>
            <g transform="matrix(1.185923,0,0,1.174552,-501.156165,-380.862295)">
                <circle cx="1303.188" cy="2170.845" r="16.729" style="fill:rgb(82,28,13);"/>
            </g>
            <g transform="matrix(1.229885,0,0,1.183908,-555.609433,-386.189466)">
                <circle cx="1289.859" cy="2149.494" r="6.877" style="fill:rgb(255,248,240);"/>
            </g>
            <g transform="matrix(1,0,0,1,-260.60906,1.215535)">
                <path d="M1383.906,2115.044L1383.906,2122.029C1383.906,2123.504 1382.708,2124.702 1381.233,2124.702L1366.343,2124.702C1364.867,2124.702 1363.67,2123.504 1363.67,2122.029L1363.67,2115.044C1363.67,2113.568 1364.867,2112.371 1366.343,2112.371L1381.233,2112.371C1382.708,2112.371 1383.906,2113.568 1383.906,2115.044Z" style="fill:rgb(255,248,240);stroke:rgb(82,28,13);stroke-width:1.25px;"/>
            </g>
            <g transform="matrix(1,0,0,1,-260.60906,1.215535)">
                <path d="M1259.211,2105.193L1286.427,2079.999L1320.154,2079.999L1347.9,2104.956L1342.082,2112.371L1262.149,2112.371L1259.211,2105.193Z" style="fill:rgb(213,69,27);"/>
            </g>
            <g transform="matrix(1.680012,0,0,0.717949,-1265.43383,577.725141)">
                <path d="M1383.906,2115.044L1383.906,2122.029C1383.906,2123.504 1383.394,2124.702 1382.764,2124.702L1364.812,2124.702C1364.182,2124.702 1363.67,2123.504 1363.67,2122.029L1363.67,2115.044C1363.67,2113.568 1364.182,2112.371 1364.812,2112.371L1382.764,2112.371C1383.394,2112.371 1383.906,2113.568 1383.906,2115.044Z" style="fill:rgb(255,248,240);stroke:rgb(82,28,13);stroke-width:0.97px;"/>
            </g>
        </g>
    </g>
</svg>
