<svg width="51" height="40" viewBox="0 0 51 40" fill="none" xmlns="http://www.w3.org/2000/svg">
<path d="M25.0507 8.82955L21.6955 9.05659C19.5259 6.48341 13.4461 0 7.39159 0C7.39159 0 2.42182 7.46727 7.29068 17.432C5.90318 19.5259 5.04545 20.6107 4.86886 23.1082L0 23.8398L0.529773 26.312L4.96977 25.6561L5.32295 27.4473L1.36227 29.8186L2.54795 32.0639L6.20591 29.8186C9.10705 35.9741 16.4482 39.1023 25.0507 39.1023C33.6532 39.1023 40.9943 35.9741 43.8955 29.8186L47.5534 32.0639L48.7391 29.8186L44.7784 27.4473L45.1316 25.6561L49.5716 26.312L50.1014 23.8398L45.2325 23.1082C45.0559 20.6107 44.1982 19.5259 42.8107 17.432C47.6796 7.46727 42.7098 0 42.7098 0C36.6552 0 30.5755 6.48341 28.4059 9.05659L25.0507 8.82955ZM17.4825 16.3977C18.1516 16.3977 18.7932 16.6635 19.2663 17.1366C19.7394 17.6097 20.0052 18.2514 20.0052 18.9205C20.0052 19.5895 19.7394 20.2312 19.2663 20.7043C18.7932 21.1774 18.1516 21.4432 17.4825 21.4432C16.8134 21.4432 16.1718 21.1774 15.6987 20.7043C15.2256 20.2312 14.9598 19.5895 14.9598 18.9205C14.9598 18.2514 15.2256 17.6097 15.6987 17.1366C16.1718 16.6635 16.8134 16.3977 17.4825 16.3977ZM32.6189 16.3977C33.2879 16.3977 33.9296 16.6635 34.4027 17.1366C34.8758 17.6097 35.1416 18.2514 35.1416 18.9205C35.1416 19.5895 34.8758 20.2312 34.4027 20.7043C33.9296 21.1774 33.2879 21.4432 32.6189 21.4432C31.9498 21.4432 31.3081 21.1774 30.835 20.7043C30.3619 20.2312 30.0961 19.5895 30.0961 18.9205C30.0961 18.2514 30.3619 17.6097 30.835 17.1366C31.3081 16.6635 31.9498 16.3977 32.6189 16.3977ZM22.528 23.9659H27.5734L25.8075 27.4725C26.312 29.087 27.7248 30.2727 29.4655 30.2727C30.4691 30.2727 31.4316 29.874 32.1412 29.1644C32.8509 28.4547 33.2495 27.4922 33.2495 26.4886H34.5109C34.5109 27.8268 33.9793 29.1101 33.0331 30.0563C32.0869 31.0025 30.8036 31.5341 29.4655 31.5341C27.5734 31.5341 25.9336 30.4998 25.0507 29.0114C24.1677 30.4998 22.528 31.5341 20.6359 31.5341C19.2978 31.5341 18.0144 31.0025 17.0682 30.0563C16.122 29.1101 15.5905 27.8268 15.5905 26.4886H16.8518C16.8518 27.4922 17.2505 28.4547 17.9602 29.1644C18.6698 29.874 19.6323 30.2727 20.6359 30.2727C22.3766 30.2727 23.7893 29.087 24.2939 27.4725L22.528 23.9659Z" fill="#FFFAF4"/>
</svg>
