<svg width="61" height="61" viewBox="0 0 61 61" fill="none" xmlns="http://www.w3.org/2000/svg">
<path d="M45.4091 10.0908C41.0952 10.0908 38.4716 10.9233 36.9579 11.6297C35.0154 10.671 32.7954 10.0908 30.2727 10.0908C27.75 10.0908 25.53 10.671 23.5875 11.6297C22.0738 10.9233 19.4502 10.0908 15.1363 10.0908C7.56816 10.0908 2.52271 30.2726 2.52271 35.3181C2.52271 37.412 5.8527 39.3292 10.4441 40.1113C12.0586 45.7622 19.6772 50.076 29.0113 50.4545V39.6572C27.5229 38.7238 25.2273 37.0335 25.2273 35.3181C25.2273 32.7954 30.2727 32.7954 30.2727 32.7954C30.2727 32.7954 35.3182 32.7954 35.3182 35.3181C35.3182 37.0335 33.0225 38.7238 31.5341 39.6572V50.4545C40.8682 50.076 48.4868 45.7622 50.1013 40.1113C54.6927 39.3292 58.0227 37.412 58.0227 35.3181C58.0227 30.2726 52.9772 10.0908 45.4091 10.0908ZM10.4693 34.9901C9.20793 34.6874 8.22407 34.3342 7.56816 34.0567C8.19884 27.0688 13.1182 16.1454 15.2625 15.1363C16.6248 15.1363 17.6591 15.2876 18.5925 15.4138C13.2948 21.2413 11.2009 30.3735 10.4693 34.9901ZM22.7045 30.2726C22.0355 30.2726 21.3938 30.0069 20.9207 29.5337C20.4476 29.0606 20.1818 28.419 20.1818 27.7499C20.1818 26.3876 21.317 25.2272 22.7045 25.2272C23.3736 25.2272 24.0153 25.493 24.4884 25.9661C24.9615 26.4392 25.2273 27.0808 25.2273 27.7499C25.2273 29.1626 24.092 30.2726 22.7045 30.2726ZM37.8409 30.2726C37.1718 30.2726 36.5302 30.0069 36.057 29.5337C35.5839 29.0606 35.3182 28.419 35.3182 27.7499C35.3182 26.3876 36.4534 25.2272 37.8409 25.2272C38.51 25.2272 39.1516 25.493 39.6247 25.9661C40.0978 26.4392 40.3636 27.0808 40.3636 27.7499C40.3636 29.1626 39.2284 30.2726 37.8409 30.2726ZM50.0761 34.9901C49.3445 30.3735 47.2507 21.2413 41.9529 15.4138C42.8863 15.2876 43.9207 15.1363 45.2829 15.1363C47.4273 16.1454 52.3466 27.0688 52.9772 34.0567C52.3466 34.3342 51.3627 34.6874 50.0761 34.9901Z" fill="#FFFAF4"/>
</svg>
