<?xml version="1.0" encoding="UTF-8" standalone="no"?>
<!DOCTYPE svg PUBLIC "-//W3C//DTD SVG 1.1//EN" "http://www.w3.org/Graphics/SVG/1.1/DTD/svg11.dtd">
<svg width="100%" height="100%" viewBox="0 0 830 414" version="1.1" xmlns="http://www.w3.org/2000/svg" xmlns:xlink="http://www.w3.org/1999/xlink" xml:space="preserve" xmlns:serif="http://www.serif.com/" style="fill-rule:evenodd;clip-rule:evenodd;stroke-linecap:round;stroke-linejoin:round;stroke-miterlimit:1.5;">
    <g transform="matrix(1,0,0,1,-1219.591726,-185.364985)">
        <g transform="matrix(1,0,0,1,140.532295,8.030396)">
            <path d="M1641.171,430.677L1649.943,504.327L1700.378,544.895L1728.868,551.473L1759.036,495.556L1749.169,464.856L1707.505,430.677L1641.171,430.677Z" style="fill:none;stroke:rgb(255,248,240);stroke-width:20.83px;"/>
            <path d="M1641.171,430.677L1649.943,504.327L1700.378,544.895L1728.868,551.473L1759.036,495.556L1749.169,464.856L1707.505,430.677L1641.171,430.677Z" style="fill:rgb(255,248,240);"/>
            <g transform="matrix(3.782555,0,0,3.782555,-4570.663408,-82.696343)">
                <g id="Calque1" transform="matrix(0.264372,0,0,0.264372,1205.522637,24.693244)">
                    <path d="M1147.33,334.091L1104.501,295.545L1147.33,202.178L1225.279,202.178L1240.157,267.353L1417.152,278.413L1488.248,293.832L1672.412,305.707L1728.868,441.163L1642.432,448.872L1247.136,370.06L1210.144,267.353L1147.33,334.091Z" style="fill:rgb(255,248,240);"/>
                    <path d="M1864.392,358.9L1829.226,375.562" style="fill:none;stroke:rgb(255,248,240);stroke-width:20.83px;"/>
                    <path d="M1864.392,358.9L1829.226,375.562" style="fill:none;"/>
                </g>
                <g transform="matrix(1,0,0,1,-21.152601,6.141078)">
                    <g transform="matrix(1,0,0,1,546.802445,-967.484956)">
                        <g transform="matrix(1,0,0,1,6.004603,-3.289812)">
                            <path d="M1006.329,1048.632C1006.329,1051.993 1005.456,1055.076 1003.716,1057.883C1002.007,1060.641 999.538,1062.912 996.276,1064.66C993.696,1066.042 990.713,1066.969 987.321,1067.415L985.536,1077.416L985.536,1077.42C984.88,1081.065 983.404,1083.541 981.395,1084.999C979.93,1086.062 978.148,1086.636 976.025,1086.636C973.423,1086.636 971.02,1085.876 968.823,1084.339C966.723,1082.872 964.999,1080.663 963.735,1077.646C962.581,1074.89 961.971,1071.505 961.971,1067.482C961.971,1060.259 963.17,1054.136 965.501,1049.101C967.93,1043.854 971.222,1039.95 975.319,1037.336C979.451,1034.7 984.002,1033.378 988.975,1033.378C992.599,1033.378 995.665,1034.051 998.189,1035.323C1000.878,1036.678 1002.894,1038.533 1004.269,1040.853C1005.633,1043.152 1006.329,1045.743 1006.329,1048.632ZM984.572,1062.158C984.433,1062.084 984.3,1061.997 984.173,1061.897C983.38,1061.274 982.991,1060.266 983.16,1059.271L984.81,1049.571C984.815,1049.544 984.82,1049.518 984.825,1049.492C984.856,1049.335 984.867,1049.14 984.87,1048.907C984.755,1048.895 984.632,1048.886 984.525,1048.886C984.151,1048.886 983.818,1048.953 983.54,1049.14C983.372,1049.254 983.384,1049.496 983.337,1049.761L983.334,1049.779C982.537,1054.127 981.923,1057.596 981.492,1060.185C981.305,1061.305 980.463,1062.164 979.41,1062.413C979.701,1062.599 979.957,1062.84 980.162,1063.126C980.594,1063.727 980.765,1064.477 980.638,1065.206L978.988,1074.656L978.982,1074.692C978.619,1076.619 978.066,1077.936 977.502,1078.707C976.599,1079.94 975.492,1080.386 974.375,1080.386C973.129,1080.386 971.632,1079.774 970.282,1077.94C969.466,1076.83 968.759,1075.286 968.235,1073.276C967.766,1071.474 967.521,1069.41 967.521,1067.082C967.521,1063.782 967.816,1060.71 968.399,1057.863C967.782,1060.776 967.479,1063.983 967.479,1067.482C967.479,1070.659 967.903,1073.341 968.815,1075.518C969.618,1077.435 970.644,1078.893 971.978,1079.825C973.214,1080.689 974.561,1081.128 976.025,1081.128C978.391,1081.128 979.582,1079.408 980.115,1076.446L982.264,1064.399C982.473,1063.226 983.409,1062.33 984.572,1062.158ZM988.187,1038.9C991.608,1039.06 994.137,1040.08 995.851,1041.715C997.843,1043.615 998.879,1046.06 998.879,1049.082C998.879,1052.336 996.913,1055.306 994.345,1057.584C992.142,1059.538 989.569,1060.977 988.117,1061.712C990.177,1061.317 992.031,1060.686 993.675,1059.805C996.012,1058.553 997.81,1056.957 999.035,1054.982C1000.228,1053.055 1000.821,1050.938 1000.821,1048.632C1000.821,1046.789 1000.402,1045.129 999.532,1043.662C998.673,1042.215 997.389,1041.087 995.711,1040.242C993.869,1039.314 991.619,1038.886 988.975,1038.886C988.711,1038.886 988.448,1038.891 988.187,1038.9ZM978.065,1062.432C978.279,1062.625 978.462,1062.85 978.606,1063.098C978.485,1062.879 978.314,1062.648 978.065,1062.432ZM974.741,1066.961C974.051,1066.752 973.489,1066.471 973.038,1066.151C973.032,1066.459 973.029,1066.77 973.029,1067.082C973.029,1068.888 973.201,1070.491 973.565,1071.888C973.628,1072.129 973.693,1072.359 973.76,1072.579L974.741,1066.961ZM974.263,1056.995C974.829,1056.789 975.465,1056.678 976.175,1056.678C976.29,1056.678 976.399,1056.68 976.501,1056.684C976.86,1054.621 977.297,1052.176 977.813,1049.349C976.655,1050.887 975.703,1052.72 974.942,1054.839C974.691,1055.538 974.464,1056.257 974.263,1056.995ZM988.381,1044.423C988.493,1044.503 988.599,1044.586 988.698,1044.672C989.708,1045.542 990.379,1046.852 990.379,1048.732C990.379,1049.465 990.324,1050.064 990.235,1050.527L989.581,1054.37C989.956,1054.086 990.329,1053.784 990.69,1053.464C992.059,1052.249 993.371,1050.817 993.371,1049.082C993.371,1047.704 992.958,1046.566 992.049,1045.7C991.212,1044.901 989.973,1044.533 988.381,1044.423Z" style="fill:rgb(255,248,240);"/>
                        </g>
                        <path d="M1021.348,1068.692C1021.972,1068.022 1022.693,1067.196 1023.513,1066.216L1023.534,1066.19C1024.54,1065.018 1025.719,1064.528 1026.975,1064.528C1028.383,1064.528 1029.524,1065.124 1030.336,1066.423C1030.81,1067.181 1031.129,1068.205 1031.129,1069.532C1031.129,1071.632 1030.531,1073.231 1029.546,1074.39C1028.037,1076.262 1026.434,1077.837 1024.743,1079.124C1022.646,1080.72 1020.586,1081.436 1018.625,1081.436C1016.894,1081.436 1015.299,1080.869 1013.856,1079.689C1013.635,1079.508 1013.423,1079.316 1013.219,1079.113C1011.393,1080.688 1009.295,1081.436 1006.975,1081.436C1004.015,1081.436 1001.665,1080.33 999.898,1078.181C998.295,1076.231 997.421,1073.696 997.421,1070.532C997.421,1067.42 998.14,1064.473 999.58,1061.692C1001.025,1058.898 1002.957,1056.659 1005.36,1054.959C1007.907,1053.157 1010.617,1052.278 1013.475,1052.278C1015.286,1052.278 1016.398,1052.936 1017.015,1053.635C1017.117,1053.75 1017.219,1053.883 1017.321,1054.035C1017.472,1054.031 1017.623,1054.028 1017.775,1054.028C1019.752,1054.028 1021.056,1054.686 1021.847,1055.533C1022.553,1056.29 1022.979,1057.272 1022.979,1058.532C1022.979,1059.304 1022.732,1061.144 1022.181,1064.046L1022.176,1064.072C1021.811,1065.896 1021.533,1067.435 1021.348,1068.692ZM1006.53,1075.908C1005.917,1075.614 1005.387,1075.189 1004.935,1074.645C1004.191,1073.753 1003.671,1072.427 1003.671,1070.582C1003.671,1068.34 1004.095,1066.218 1004.936,1064.216C1005.472,1062.94 1006.127,1061.821 1006.893,1060.852C1005.943,1061.812 1005.137,1062.937 1004.471,1064.223C1003.444,1066.208 1002.929,1068.311 1002.929,1070.532C1002.929,1072.235 1003.289,1073.634 1004.153,1074.683C1004.762,1075.424 1005.56,1075.819 1006.53,1075.908ZM1016.927,1059.572C1016.936,1059.789 1016.919,1060.008 1016.875,1060.225L1015.025,1069.425L1015.021,1069.447C1014.837,1070.327 1014.592,1071.123 1014.295,1071.838C1014.872,1072.006 1015.375,1072.357 1015.732,1072.834C1015.628,1072.438 1015.571,1072.005 1015.571,1071.532C1015.571,1069.934 1015.956,1067.089 1016.772,1063.006C1017.059,1061.496 1017.265,1060.343 1017.376,1059.544C1017.225,1059.55 1017.075,1059.559 1016.927,1059.572ZM1016.481,1074.365C1016.713,1074.785 1016.997,1075.142 1017.344,1075.426C1017.735,1075.746 1018.156,1075.928 1018.625,1075.928C1018.769,1075.928 1018.913,1075.917 1019.057,1075.895C1018.068,1075.759 1017.246,1075.288 1016.585,1074.495C1016.549,1074.453 1016.515,1074.409 1016.481,1074.365ZM1009.209,1069.738C1009.382,1069.323 1009.518,1068.851 1009.628,1068.328L1010.036,1066.297C1010.029,1066.314 1010.022,1066.331 1010.014,1066.349C1009.562,1067.426 1009.295,1068.556 1009.209,1069.738Z" style="fill:rgb(255,248,240);"/>
                        <path d="M1043.276,1052.045C1044.498,1052.139 1045.349,1052.611 1045.923,1053.185C1046.52,1053.782 1047.079,1054.811 1047.079,1056.432C1047.079,1060.061 1044.619,1062.636 1038.675,1062.636L1035.243,1062.636C1035.234,1063.067 1035.229,1063.449 1035.229,1063.782C1035.229,1066.58 1035.42,1068.565 1036.079,1069.695C1036.388,1070.224 1036.907,1070.428 1037.575,1070.428C1038.365,1070.428 1039.065,1070.197 1039.671,1069.719C1040.666,1068.935 1041.834,1067.751 1043.191,1066.183C1044.195,1065.015 1045.372,1064.528 1046.625,1064.528C1048.033,1064.528 1049.174,1065.124 1049.986,1066.423C1050.46,1067.181 1050.779,1068.205 1050.779,1069.532C1050.779,1071.635 1050.179,1073.235 1049.191,1074.395C1048.528,1075.211 1047.838,1075.966 1047.124,1076.66C1046.102,1077.653 1045.028,1078.524 1043.903,1079.274C1041.758,1080.704 1039.302,1081.436 1036.525,1081.436C1033.009,1081.436 1030.223,1080.374 1028.113,1078.395C1025.242,1075.702 1023.571,1071.064 1023.571,1064.332C1023.571,1063.753 1023.579,1063.171 1023.594,1062.586C1022.096,1062.419 1021.102,1061.856 1020.508,1061.234C1019.767,1060.457 1019.221,1059.278 1019.221,1057.582C1019.221,1055.411 1019.98,1053.979 1021.027,1053.111C1021.833,1052.442 1022.882,1052.028 1024.225,1052.028L1024.761,1052.028C1025.342,1049.055 1026.124,1046.294 1027.105,1043.744C1028.414,1040.34 1030.019,1037.642 1031.87,1035.621C1034.133,1033.154 1036.62,1032.028 1039.225,1032.028C1041.598,1032.028 1043.48,1033.043 1044.836,1035.134C1045.896,1036.768 1046.479,1038.808 1046.479,1041.282C1046.479,1045.196 1045.421,1048.789 1043.276,1052.045ZM1036.974,1075.918C1034.419,1075.76 1032.552,1074.579 1031.322,1072.47C1030.347,1070.799 1029.721,1067.92 1029.721,1063.782C1029.721,1062.823 1029.755,1061.486 1029.824,1059.772C1029.883,1058.295 1031.097,1057.128 1032.575,1057.128L1035.783,1057.128C1035.395,1056.89 1035.067,1056.555 1034.835,1056.15C1033.971,1056.869 1032.755,1056.991 1031.764,1056.454C1030.757,1055.908 1030.192,1054.797 1030.347,1053.662C1030.55,1052.162 1030.781,1050.735 1031.04,1049.379C1030.527,1051.216 1030.113,1053.157 1029.797,1055.203C1029.626,1056.311 1028.809,1057.179 1027.765,1057.449C1028.031,1057.59 1028.276,1057.776 1028.486,1058.001C1029.007,1058.558 1029.274,1059.305 1029.223,1060.066C1029.127,1061.504 1029.079,1062.926 1029.079,1064.332C1029.079,1069.083 1029.855,1072.477 1031.881,1074.378C1033.036,1075.461 1034.601,1075.928 1036.525,1075.928C1036.677,1075.928 1036.826,1075.925 1036.974,1075.918Z" style="fill:rgb(255,248,240);"/>
                        <path d="M1077.322,1058.457C1077.437,1058.054 1077.552,1057.64 1077.666,1057.217C1078.12,1055.518 1078.911,1054.356 1079.846,1053.619C1080.783,1052.881 1082.151,1052.378 1084.025,1052.378C1085.495,1052.378 1086.486,1052.706 1087.061,1053.058C1088.082,1053.681 1088.829,1054.731 1088.829,1056.432C1088.829,1057.337 1088.419,1059.823 1087.514,1063.876C1087.06,1065.956 1086.714,1067.614 1086.488,1068.854C1087.151,1068.158 1087.924,1067.278 1088.813,1066.216L1088.834,1066.19C1089.84,1065.018 1091.019,1064.528 1092.275,1064.528C1093.683,1064.528 1094.824,1065.124 1095.636,1066.423C1096.11,1067.181 1096.429,1068.205 1096.429,1069.532C1096.429,1071.635 1095.829,1073.235 1094.842,1074.395C1093.237,1076.368 1091.506,1077.984 1089.66,1079.252C1087.551,1080.7 1085.159,1081.436 1082.475,1081.436C1080.11,1081.436 1078.326,1080.579 1077.075,1078.96C1075.389,1080.672 1073.543,1081.436 1071.625,1081.436C1069.214,1081.436 1067.208,1080.39 1065.68,1078.166C1064.441,1076.362 1063.771,1074.127 1063.771,1071.432C1063.771,1068.774 1063.952,1066.337 1064.306,1064.122C1064.661,1061.906 1065.243,1059.555 1066.059,1057.073L1066.063,1057.061C1066.615,1055.404 1067.468,1054.268 1068.463,1053.55C1069.41,1052.866 1070.874,1052.378 1072.925,1052.378C1074.528,1052.378 1075.582,1052.847 1076.201,1053.357C1077.072,1054.074 1077.629,1055.098 1077.629,1056.532C1077.629,1056.768 1077.54,1057.413 1077.322,1058.457ZM1073.849,1074.223C1073.754,1074.232 1073.662,1074.236 1073.575,1074.236C1072.102,1074.236 1071.071,1073.592 1070.402,1072.454C1070.074,1071.897 1069.771,1070.958 1069.771,1069.582C1069.771,1068.33 1070.105,1065.823 1070.82,1062.067L1070.825,1062.042C1071.033,1061 1071.31,1059.837 1071.657,1058.551C1071.706,1058.346 1071.752,1058.146 1071.795,1057.955C1071.756,1057.971 1071.721,1057.991 1071.688,1058.015C1071.483,1058.163 1071.404,1058.454 1071.291,1058.794C1070.574,1060.977 1070.057,1063.043 1069.745,1064.992C1069.432,1066.944 1069.279,1069.091 1069.279,1071.432C1069.279,1072.871 1069.559,1074.085 1070.22,1075.048C1070.594,1075.592 1071.036,1075.928 1071.625,1075.928C1072.227,1075.928 1072.735,1075.544 1073.26,1074.98C1073.472,1074.753 1073.668,1074.5 1073.849,1074.223ZM1079.135,1069.209C1080.002,1069.678 1080.579,1070.594 1080.579,1071.632C1080.579,1073.243 1080.762,1074.512 1081.303,1075.401C1081.545,1075.8 1081.959,1075.928 1082.475,1075.928C1082.942,1075.928 1083.393,1075.891 1083.829,1075.815C1082.963,1075.602 1082.23,1075.108 1081.635,1074.326C1081.061,1073.573 1080.671,1072.545 1080.671,1071.182C1080.671,1070.109 1081.133,1067.275 1082.135,1062.694L1082.138,1062.682C1082.544,1060.862 1082.854,1059.421 1083.054,1058.358C1083.033,1058.446 1083.013,1058.542 1082.986,1058.642L1082.984,1058.649C1082.147,1061.753 1081.28,1064.367 1080.391,1066.494C1079.964,1067.516 1079.544,1068.42 1079.135,1069.209Z" style="fill:rgb(255,248,240);"/>
                        <path d="M1100.324,1055.1C1100.893,1054.625 1101.457,1054.227 1102.015,1053.903C1103.828,1052.847 1105.51,1052.378 1107.025,1052.378C1108.996,1052.378 1110.425,1053.012 1111.41,1053.998C1112.396,1054.983 1113.029,1056.412 1113.029,1058.382C1113.029,1059.789 1112.661,1062.335 1111.867,1066.013L1111.866,1066.02C1111.624,1067.127 1111.428,1068.073 1111.282,1068.86C1111.946,1068.164 1112.722,1067.281 1113.613,1066.216L1113.634,1066.19C1114.64,1065.018 1115.819,1064.528 1117.075,1064.528C1118.483,1064.528 1119.624,1065.124 1120.436,1066.423C1120.91,1067.181 1121.229,1068.205 1121.229,1069.532C1121.229,1071.635 1120.629,1073.235 1119.642,1074.395C1118.037,1076.368 1116.306,1077.984 1114.46,1079.252C1112.351,1080.7 1109.959,1081.436 1107.275,1081.436C1104.642,1081.436 1102.702,1080.552 1101.359,1079.028C1100.437,1077.982 1099.79,1076.609 1099.517,1074.877C1099.478,1075.023 1099.441,1075.17 1099.405,1075.317C1098.895,1077.491 1098.19,1078.912 1097.519,1079.675C1096.583,1080.74 1095.177,1081.436 1093.175,1081.436C1090.729,1081.436 1088.93,1080.253 1087.933,1077.677C1087.335,1076.135 1086.971,1073.675 1086.971,1070.282C1086.971,1065.66 1087.633,1061.269 1088.948,1057.108C1089.463,1055.452 1090.364,1054.279 1091.536,1053.507C1092.585,1052.817 1094.032,1052.378 1095.925,1052.378C1097.302,1052.378 1098.234,1052.703 1098.785,1053.047C1099.479,1053.481 1100.058,1054.134 1100.324,1055.1ZM1103.058,1060.052L1104.064,1060.226L1104.663,1060.517L1105.194,1060.933C1105.73,1061.453 1106.229,1062.283 1106.229,1063.582C1106.229,1064.482 1106.012,1066.114 1105.526,1068.472C1105.11,1070.614 1104.879,1072.098 1104.879,1072.932C1104.879,1073.989 1105.001,1074.83 1105.491,1075.386C1105.883,1075.831 1106.507,1075.928 1107.275,1075.928C1107.738,1075.928 1108.186,1075.891 1108.619,1075.817C1107.934,1075.653 1107.361,1075.328 1106.883,1074.889C1106.099,1074.168 1105.471,1072.986 1105.471,1071.182C1105.471,1070.155 1105.787,1068.04 1106.484,1064.849C1107.157,1061.728 1107.521,1059.576 1107.521,1058.382C1107.521,1058.241 1107.495,1058.055 1107.475,1057.934C1107.353,1057.913 1107.164,1057.886 1107.025,1057.886C1106.34,1057.886 1105.607,1058.184 1104.786,1058.662C1104.211,1058.997 1103.638,1059.464 1103.058,1060.052ZM1095.327,1069.864C1095.235,1069.852 1095.143,1069.836 1095.051,1069.815C1093.713,1069.503 1092.808,1068.252 1092.933,1066.883C1093.077,1065.301 1093.259,1063.971 1093.475,1062.892C1093.682,1061.856 1093.958,1060.646 1094.304,1059.264L1094.315,1059.22C1094.429,1058.794 1094.531,1058.413 1094.619,1058.074C1094.601,1058.085 1094.583,1058.096 1094.565,1058.107C1094.371,1058.235 1094.291,1058.474 1094.205,1058.749L1094.201,1058.763C1093.051,1062.4 1092.479,1066.241 1092.479,1070.282C1092.479,1072.756 1092.632,1074.563 1093.068,1075.687C1093.098,1075.763 1093.152,1075.863 1093.189,1075.928C1093.28,1075.927 1093.4,1075.913 1093.483,1075.902C1093.713,1075.532 1093.847,1074.897 1094.044,1074.055L1094.051,1074.025C1094.403,1072.592 1094.829,1071.205 1095.327,1069.864Z" style="fill:rgb(255,248,240);"/>
                        <path d="M1133.173,1066.108C1134.196,1066.308 1135.043,1066.895 1135.686,1067.923C1136.16,1068.681 1136.479,1069.705 1136.479,1071.032C1136.479,1072.819 1136.024,1074.349 1135.18,1075.639C1133.988,1077.47 1132.423,1078.896 1130.485,1079.918C1128.607,1080.909 1126.375,1081.436 1123.775,1081.436C1119.69,1081.436 1116.556,1080.121 1114.3,1077.674C1112.103,1075.29 1110.921,1072.095 1110.921,1068.032C1110.921,1065.3 1111.501,1062.757 1112.65,1060.401C1113.837,1057.965 1115.494,1056.038 1117.602,1054.605C1119.776,1053.127 1122.232,1052.378 1124.975,1052.378C1127.723,1052.378 1129.901,1053.262 1131.559,1054.896C1133.222,1056.536 1134.129,1058.728 1134.129,1061.532C1134.129,1063.183 1133.811,1064.708 1133.173,1066.108ZM1120.437,1075.365C1119.442,1074.732 1118.643,1073.824 1118.034,1072.656C1117.642,1071.906 1117.618,1071.017 1117.967,1070.246C1118.145,1069.853 1118.41,1069.512 1118.737,1069.247L1116.971,1067.48L1116.971,1067.385L1118.791,1069.203C1118.792,1069.203 1118.792,1069.203 1118.792,1069.203L1116.971,1067.382C1116.971,1065.442 1117.297,1063.722 1117.917,1062.214C1117.806,1062.408 1117.701,1062.608 1117.601,1062.814C1116.816,1064.424 1116.429,1066.165 1116.429,1068.032C1116.429,1070.503 1117.014,1072.491 1118.35,1073.941C1118.933,1074.573 1119.631,1075.042 1120.437,1075.365ZM1127.431,1058.59C1127.483,1058.642 1127.534,1058.696 1127.584,1058.75C1127.928,1059.128 1128.211,1059.554 1128.419,1060.033C1128.271,1059.565 1128.036,1059.157 1127.692,1058.819C1127.609,1058.736 1127.522,1058.66 1127.431,1058.59Z" style="fill:rgb(255,248,240);"/>
                        <g transform="matrix(0.999024,0.044178,-0.044178,0.999024,48.931042,-43.901663)">
                            <path d="M1069.475,1060.328C1070.935,1060.328 1072.114,1060.967 1072.9,1062.427C1073.32,1063.206 1073.579,1064.184 1073.579,1065.382C1073.579,1068.579 1072.163,1070.23 1070.249,1070.844C1068.587,1071.423 1066.803,1071.821 1064.895,1072.032C1064.03,1074.521 1062.678,1076.572 1060.87,1078.202C1058.463,1080.372 1055.726,1081.436 1052.675,1081.436C1050.065,1081.436 1047.847,1080.769 1045.998,1079.507C1044.165,1078.257 1042.771,1076.6 1041.822,1074.53C1040.927,1072.576 1040.471,1070.461 1040.471,1068.182C1040.471,1065.196 1041.06,1062.539 1042.2,1060.201C1043.396,1057.746 1045.059,1055.838 1047.163,1054.456C1049.319,1053.04 1051.705,1052.328 1054.325,1052.328C1057.718,1052.328 1060.436,1053.538 1062.512,1055.881C1063.846,1057.388 1064.809,1059.134 1065.383,1061.126C1066.216,1060.974 1067.114,1060.77 1068.079,1060.518L1068.107,1060.511C1068.628,1060.381 1069.085,1060.328 1069.475,1060.328ZM1051.093,1075.779C1050.083,1075.39 1049.154,1074.673 1048.338,1073.572C1047.336,1072.221 1046.721,1070.295 1046.721,1067.732C1046.721,1064.717 1047.39,1062.404 1048.532,1060.746C1048.838,1060.302 1049.162,1059.907 1049.504,1059.562C1048.532,1060.358 1047.753,1061.379 1047.151,1062.614C1046.357,1064.243 1045.979,1066.102 1045.979,1068.182C1045.979,1068.761 1046.023,1069.323 1046.112,1069.87L1046.127,1069.868C1046.183,1070.531 1046.62,1071.186 1046.951,1071.84C1047.29,1072.51 1047.599,1073.169 1047.808,1073.792C1048.181,1074.234 1048.612,1074.623 1049.103,1074.958C1049.691,1075.359 1050.356,1075.628 1051.093,1075.779ZM1062.168,1066.746C1061.24,1066.381 1060.546,1065.522 1060.436,1064.467C1060.233,1062.515 1059.567,1060.864 1058.389,1059.533C1057.665,1058.716 1056.771,1058.206 1055.717,1057.977C1056.011,1058.141 1056.275,1058.359 1056.494,1058.624C1057.018,1059.254 1057.233,1060.085 1057.082,1060.89C1057.014,1061.254 1056.979,1061.618 1056.979,1061.982C1056.979,1062.826 1057.162,1063.625 1057.528,1064.38C1057.862,1065.069 1058.342,1065.627 1058.97,1066.052C1059.791,1066.608 1060.244,1067.558 1060.172,1068.535C1060.483,1067.63 1061.243,1066.955 1062.168,1066.746ZM1052.308,1066.197C1052.253,1066.669 1052.229,1067.181 1052.229,1067.732C1052.229,1068.838 1052.33,1069.709 1052.763,1070.292C1052.876,1070.445 1052.923,1070.628 1053.075,1070.628C1053.364,1070.628 1053.595,1070.471 1053.807,1070.236C1054.031,1069.988 1054.205,1069.684 1054.344,1069.328C1053.629,1068.592 1053.038,1067.744 1052.573,1066.785C1052.479,1066.59 1052.39,1066.395 1052.308,1066.197Z" style="fill:rgb(255,248,240);"/>
                        </g>
                        <g transform="matrix(1,0,0,1,6.004603,-3.289812)">
                            <path d="M1003.575,1048.632C1003.575,1051.466 1002.842,1054.066 1001.375,1056.432C999.909,1058.799 997.775,1060.732 994.975,1062.232C992.175,1063.732 988.842,1064.616 984.975,1064.882L982.825,1076.932C981.992,1081.566 979.725,1083.882 976.025,1083.882C973.992,1083.882 972.117,1083.282 970.4,1082.082C968.684,1080.882 967.309,1079.049 966.275,1076.582C965.242,1074.116 964.725,1071.082 964.725,1067.482C964.725,1060.716 965.817,1054.974 968,1050.257C970.184,1045.541 973.117,1042.007 976.8,1039.657C980.484,1037.307 984.542,1036.132 988.975,1036.132C992.109,1036.132 994.767,1036.682 996.95,1037.782C999.134,1038.882 1000.784,1040.374 1001.9,1042.257C1003.017,1044.141 1003.575,1046.266 1003.575,1048.632ZM985.875,1059.732C985.875,1059.732 996.125,1055.316 996.125,1049.082C996.125,1046.882 995.4,1045.091 993.95,1043.707C992.5,1042.324 990.259,1041.632 987.225,1041.632C983.792,1041.632 980.8,1042.716 978.25,1044.882C975.7,1047.049 973.734,1050.057 972.35,1053.907C970.967,1057.757 970.275,1062.149 970.275,1067.082C970.275,1069.149 970.484,1070.982 970.9,1072.582C971.317,1074.182 971.85,1075.424 972.5,1076.307C973.15,1077.191 973.775,1077.632 974.375,1077.632C975.209,1077.632 975.842,1076.482 976.275,1074.182L977.925,1064.732C976.625,1064.532 976.059,1064.449 976.225,1064.482C975.225,1064.316 974.575,1064.007 974.275,1063.557C973.975,1063.107 973.825,1062.532 973.825,1061.832C973.825,1061.099 974.034,1060.516 974.45,1060.082C974.867,1059.649 975.442,1059.432 976.175,1059.432C976.509,1059.432 976.759,1059.449 976.925,1059.482C977.725,1059.616 978.342,1059.699 978.775,1059.732C979.209,1057.132 979.825,1053.649 980.625,1049.282C980.825,1048.149 981.284,1047.341 982,1046.857C982.717,1046.374 983.559,1046.132 984.525,1046.132C985.625,1046.132 986.417,1046.341 986.9,1046.757C987.384,1047.174 987.625,1047.832 987.625,1048.732C987.625,1049.266 987.592,1049.699 987.525,1050.032L985.875,1059.732Z" style="fill:rgb(82,28,13);fill-rule:nonzero;"/>
                        </g>
                        <path d="M1006.975,1078.682C1004.909,1078.682 1003.259,1077.932 1002.025,1076.432C1000.792,1074.932 1000.175,1072.966 1000.175,1070.532C1000.175,1067.866 1000.792,1065.341 1002.025,1062.957C1003.259,1060.574 1004.9,1058.657 1006.95,1057.207C1009,1055.757 1011.175,1055.032 1013.475,1055.032C1014.209,1055.032 1014.7,1055.174 1014.95,1055.457C1015.2,1055.741 1015.409,1056.249 1015.575,1056.982C1016.275,1056.849 1017.009,1056.782 1017.775,1056.782C1019.409,1056.782 1020.225,1057.366 1020.225,1058.532C1020.225,1059.232 1019.975,1060.899 1019.475,1063.532C1018.709,1067.366 1018.325,1070.032 1018.325,1071.532C1018.325,1072.032 1018.45,1072.432 1018.7,1072.732C1018.95,1073.032 1019.275,1073.182 1019.675,1073.182C1020.309,1073.182 1021.075,1072.774 1021.975,1071.957C1022.875,1071.141 1024.092,1069.816 1025.625,1067.982C1026.025,1067.516 1026.475,1067.282 1026.975,1067.282C1027.409,1067.282 1027.75,1067.482 1028,1067.882C1028.25,1068.282 1028.375,1068.832 1028.375,1069.532C1028.375,1070.866 1028.059,1071.899 1027.425,1072.632C1026.059,1074.332 1024.609,1075.766 1023.075,1076.932C1021.542,1078.099 1020.059,1078.682 1018.625,1078.682C1017.525,1078.682 1016.517,1078.307 1015.6,1077.557C1014.684,1076.807 1013.992,1075.782 1013.525,1074.482C1011.792,1077.282 1009.609,1078.682 1006.975,1078.682ZM1008.775,1073.632C1009.509,1073.632 1010.209,1073.199 1010.875,1072.332C1011.542,1071.466 1012.025,1070.316 1012.325,1068.882L1014.175,1059.682C1012.775,1059.716 1011.484,1060.241 1010.3,1061.257C1009.117,1062.274 1008.175,1063.616 1007.475,1065.282C1006.775,1066.949 1006.425,1068.716 1006.425,1070.582C1006.425,1071.616 1006.634,1072.382 1007.05,1072.882C1007.467,1073.382 1008.042,1073.632 1008.775,1073.632Z" style="fill:rgb(82,28,13);fill-rule:nonzero;"/>
                        <path d="M1045.205,1074.685C1044.754,1073.281 1043.512,1071.648 1043.383,1070.097C1043.512,1071.648 1044.754,1073.281 1045.205,1074.685C1044.307,1075.558 1043.364,1076.324 1042.375,1076.982C1040.675,1078.116 1038.725,1078.682 1036.525,1078.682C1029.725,1078.682 1026.325,1073.899 1026.325,1064.332C1026.325,1062.866 1026.375,1061.382 1026.475,1059.882L1024.525,1059.882C1023.525,1059.882 1022.85,1059.699 1022.5,1059.332C1022.15,1058.966 1021.975,1058.382 1021.975,1057.582C1021.975,1055.716 1022.725,1054.782 1024.225,1054.782L1027.075,1054.782C1027.642,1051.116 1028.509,1047.766 1029.675,1044.732C1030.842,1041.699 1032.25,1039.282 1033.9,1037.482C1035.55,1035.682 1037.325,1034.782 1039.225,1034.782C1040.625,1034.782 1041.725,1035.399 1042.525,1036.632C1043.325,1037.866 1043.725,1039.416 1043.725,1041.282C1043.725,1046.449 1041.559,1050.949 1037.225,1054.782L1042.825,1054.782C1043.359,1054.782 1043.742,1054.899 1043.975,1055.132C1044.209,1055.366 1044.325,1055.799 1044.325,1056.432C1044.325,1058.732 1042.442,1059.882 1038.675,1059.882L1032.575,1059.882C1032.509,1061.549 1032.475,1062.849 1032.475,1063.782C1032.475,1067.249 1032.884,1069.682 1033.7,1071.082C1034.517,1072.482 1035.809,1073.182 1037.575,1073.182C1039.009,1073.182 1040.275,1072.749 1041.375,1071.882C1042.475,1071.016 1043.775,1069.716 1045.275,1067.982C1045.675,1067.516 1046.125,1067.282 1046.625,1067.282C1047.059,1067.282 1047.4,1067.482 1047.65,1067.882C1047.9,1068.282 1048.025,1068.832 1048.025,1069.532C1048.025,1070.866 1047.709,1071.899 1047.075,1072.632C1046.475,1073.372 1045.852,1074.056 1045.205,1074.685ZM1037.875,1039.582C1037.375,1039.582 1036.817,1040.207 1036.2,1041.457C1035.584,1042.707 1035,1044.441 1034.45,1046.657C1033.9,1048.874 1033.442,1051.332 1033.075,1054.032C1035.042,1052.332 1036.517,1050.424 1037.5,1048.307C1038.484,1046.191 1038.975,1044.266 1038.975,1042.532C1038.975,1040.566 1038.609,1039.582 1037.875,1039.582Z" style="fill:rgb(82,28,13);fill-rule:nonzero;"/>
                        <g transform="matrix(0.999024,0.044178,-0.044178,0.999024,48.931042,-43.901663)">
                            <path d="M1069.475,1063.082C1069.909,1063.082 1070.242,1063.299 1070.475,1063.732C1070.709,1064.166 1070.825,1064.716 1070.825,1065.382C1070.825,1066.982 1070.342,1067.932 1069.375,1068.232C1067.375,1068.932 1065.175,1069.332 1062.775,1069.432C1062.142,1072.232 1060.892,1074.474 1059.025,1076.157C1057.159,1077.841 1055.042,1078.682 1052.675,1078.682C1050.675,1078.682 1048.967,1078.199 1047.55,1077.232C1046.134,1076.266 1045.059,1074.982 1044.325,1073.382C1043.592,1071.782 1043.225,1070.049 1043.225,1068.182C1043.225,1065.649 1043.709,1063.391 1044.675,1061.407C1045.642,1059.424 1046.975,1057.874 1048.675,1056.757C1050.375,1055.641 1052.259,1055.082 1054.325,1055.082C1056.859,1055.082 1058.9,1055.957 1060.45,1057.707C1062,1059.457 1062.909,1061.616 1063.175,1064.182C1064.742,1064.082 1066.609,1063.749 1068.775,1063.182C1069.042,1063.116 1069.275,1063.082 1069.475,1063.082ZM1043.383,1070.097C1043.52,1071.745 1044.915,1073.487 1045.28,1074.947C1044.915,1073.487 1043.52,1071.745 1043.383,1070.097ZM1053.075,1073.382C1054.142,1073.382 1055.067,1072.949 1055.85,1072.082C1056.634,1071.216 1057.159,1069.966 1057.425,1068.332C1056.392,1067.632 1055.6,1066.716 1055.05,1065.582C1054.5,1064.449 1054.225,1063.249 1054.225,1061.982C1054.225,1061.449 1054.275,1060.916 1054.375,1060.382L1054.125,1060.382C1052.792,1060.382 1051.684,1061.024 1050.8,1062.307C1049.917,1063.591 1049.475,1065.399 1049.475,1067.732C1049.475,1069.566 1049.834,1070.966 1050.55,1071.932C1051.267,1072.899 1052.109,1073.382 1053.075,1073.382Z" style="fill:rgb(82,28,13);fill-rule:nonzero;"/>
                        </g>
                        <path d="M1071.625,1078.682C1070.125,1078.682 1068.9,1077.991 1067.95,1076.607C1067,1075.224 1066.525,1073.499 1066.525,1071.432C1066.525,1068.932 1066.692,1066.641 1067.025,1064.557C1067.359,1062.474 1067.909,1060.266 1068.675,1057.932C1069.009,1056.932 1069.475,1056.216 1070.075,1055.782C1070.675,1055.349 1071.625,1055.132 1072.925,1055.132C1073.659,1055.132 1074.167,1055.249 1074.45,1055.482C1074.734,1055.716 1074.875,1056.066 1074.875,1056.532C1074.875,1056.799 1074.692,1057.699 1074.325,1059.232C1073.992,1060.466 1073.725,1061.582 1073.525,1062.582C1072.859,1066.082 1072.525,1068.416 1072.525,1069.582C1072.525,1070.282 1072.609,1070.774 1072.775,1071.057C1072.942,1071.341 1073.209,1071.482 1073.575,1071.482C1074.075,1071.482 1074.7,1070.982 1075.45,1069.982C1076.2,1068.982 1077,1067.466 1077.85,1065.432C1078.7,1063.399 1079.525,1060.899 1080.325,1057.932C1080.592,1056.932 1081,1056.216 1081.55,1055.782C1082.1,1055.349 1082.925,1055.132 1084.025,1055.132C1084.792,1055.132 1085.325,1055.224 1085.625,1055.407C1085.925,1055.591 1086.075,1055.932 1086.075,1056.432C1086.075,1057.266 1085.659,1059.549 1084.825,1063.282C1083.892,1067.549 1083.425,1070.182 1083.425,1071.182C1083.425,1071.816 1083.559,1072.307 1083.825,1072.657C1084.092,1073.007 1084.442,1073.182 1084.875,1073.182C1085.542,1073.182 1086.334,1072.774 1087.25,1071.957C1088.167,1071.141 1089.392,1069.816 1090.925,1067.982C1091.325,1067.516 1091.775,1067.282 1092.275,1067.282C1092.709,1067.282 1093.05,1067.482 1093.3,1067.882C1093.55,1068.282 1093.675,1068.832 1093.675,1069.532C1093.675,1070.866 1093.359,1071.899 1092.725,1072.632C1091.292,1074.399 1089.75,1075.849 1088.1,1076.982C1086.45,1078.116 1084.575,1078.682 1082.475,1078.682C1080.875,1078.682 1079.7,1078.066 1078.95,1076.832C1078.2,1075.599 1077.825,1073.866 1077.825,1071.632C1077.259,1073.899 1076.409,1075.641 1075.275,1076.857C1074.142,1078.074 1072.925,1078.682 1071.625,1078.682Z" style="fill:rgb(82,28,13);fill-rule:nonzero;"/>
                        <path d="M1093.175,1078.682C1091.909,1078.682 1091.017,1078.016 1090.5,1076.682C1089.984,1075.349 1089.725,1073.216 1089.725,1070.282C1089.725,1065.949 1090.342,1061.832 1091.575,1057.932C1091.875,1056.966 1092.367,1056.257 1093.05,1055.807C1093.734,1055.357 1094.692,1055.132 1095.925,1055.132C1096.592,1055.132 1097.059,1055.216 1097.325,1055.382C1097.592,1055.549 1097.725,1055.866 1097.725,1056.332C1097.725,1056.866 1097.475,1058.066 1096.975,1059.932C1096.642,1061.266 1096.375,1062.432 1096.175,1063.432C1095.975,1064.432 1095.809,1065.666 1095.675,1067.132C1096.775,1064.266 1098.009,1061.932 1099.375,1060.132C1100.742,1058.332 1102.084,1057.049 1103.4,1056.282C1104.717,1055.516 1105.925,1055.132 1107.025,1055.132C1109.192,1055.132 1110.275,1056.216 1110.275,1058.382C1110.275,1059.682 1109.909,1062.032 1109.175,1065.432C1108.542,1068.332 1108.225,1070.249 1108.225,1071.182C1108.225,1072.516 1108.709,1073.182 1109.675,1073.182C1110.342,1073.182 1111.134,1072.774 1112.05,1071.957C1112.967,1071.141 1114.192,1069.816 1115.725,1067.982C1116.125,1067.516 1116.575,1067.282 1117.075,1067.282C1117.509,1067.282 1117.85,1067.482 1118.1,1067.882C1118.35,1068.282 1118.475,1068.832 1118.475,1069.532C1118.475,1070.866 1118.159,1071.899 1117.525,1072.632C1116.092,1074.399 1114.55,1075.849 1112.9,1076.982C1111.25,1078.116 1109.375,1078.682 1107.275,1078.682C1105.575,1078.682 1104.292,1078.191 1103.425,1077.207C1102.559,1076.224 1102.125,1074.799 1102.125,1072.932C1102.125,1071.999 1102.359,1070.332 1102.825,1067.932C1103.259,1065.832 1103.475,1064.382 1103.475,1063.582C1103.475,1063.049 1103.292,1062.782 1102.925,1062.782C1102.492,1062.782 1101.884,1063.341 1101.1,1064.457C1100.317,1065.574 1099.517,1067.049 1098.7,1068.882C1097.884,1070.716 1097.225,1072.649 1096.725,1074.682C1096.359,1076.249 1095.934,1077.307 1095.45,1077.857C1094.967,1078.407 1094.209,1078.682 1093.175,1078.682Z" style="fill:rgb(82,28,13);fill-rule:nonzero;"/>
                        <path d="M1132.325,1068.782C1132.759,1068.782 1133.1,1068.982 1133.35,1069.382C1133.6,1069.782 1133.725,1070.332 1133.725,1071.032C1133.725,1072.232 1133.442,1073.266 1132.875,1074.132C1131.942,1075.566 1130.717,1076.682 1129.2,1077.482C1127.684,1078.282 1125.875,1078.682 1123.775,1078.682C1120.575,1078.682 1118.092,1077.724 1116.325,1075.807C1114.559,1073.891 1113.675,1071.299 1113.675,1068.032C1113.675,1065.732 1114.159,1063.591 1115.125,1061.607C1116.092,1059.624 1117.434,1058.049 1119.15,1056.882C1120.867,1055.716 1122.809,1055.132 1124.975,1055.132C1126.909,1055.132 1128.459,1055.707 1129.625,1056.857C1130.792,1058.007 1131.375,1059.566 1131.375,1061.532C1131.375,1063.832 1130.55,1065.807 1128.9,1067.457C1127.25,1069.107 1124.442,1070.416 1120.475,1071.382C1121.275,1072.916 1122.625,1073.682 1124.525,1073.682C1125.892,1073.682 1127.017,1073.366 1127.9,1072.732C1128.784,1072.099 1129.809,1071.032 1130.975,1069.532C1131.375,1069.032 1131.825,1068.782 1132.325,1068.782ZM1124.125,1060.032C1122.892,1060.032 1121.85,1060.749 1121,1062.182C1120.15,1063.616 1119.725,1065.349 1119.725,1067.382L1119.725,1067.482C1121.692,1067.016 1123.242,1066.316 1124.375,1065.382C1125.509,1064.449 1126.075,1063.366 1126.075,1062.132C1126.075,1061.499 1125.9,1060.991 1125.55,1060.607C1125.2,1060.224 1124.725,1060.032 1124.125,1060.032Z" style="fill:rgb(82,28,13);fill-rule:nonzero;"/>
                    </g>
                </g>
                <g transform="matrix(0.404664,0.253745,-0.253745,0.404664,1383.892604,-589.526646)">
                    <g transform="matrix(0.768884,0.468792,-0.474633,0.778465,969.256998,-287.906069)">
                        <g transform="matrix(1,0,-0,1,145.273039,-125.030945)">
                            <path d="M873.011,1011.083C876.55,1011.083 879.981,1012.726 882.634,1016.003C885.31,1019.307 887.244,1024.582 887.244,1030.594C887.244,1036.606 885.31,1041.881 882.634,1045.186C879.981,1048.462 876.55,1050.106 873.011,1050.106C869.472,1050.106 866.041,1048.462 863.388,1045.186C860.711,1041.881 858.778,1036.606 858.778,1030.594C858.778,1024.582 860.711,1019.307 863.388,1016.003C866.041,1012.726 869.472,1011.083 873.011,1011.083ZM873.011,1036.658C873.18,1036.401 873.342,1036.127 873.448,1035.883C874.092,1034.402 874.439,1032.569 874.439,1030.594C874.439,1028.619 874.092,1026.787 873.448,1025.306C873.342,1025.062 873.18,1024.788 873.011,1024.531C872.842,1024.788 872.68,1025.062 872.574,1025.306C871.929,1026.787 871.583,1028.619 871.583,1030.594C871.583,1032.569 871.929,1034.402 872.574,1035.883C872.68,1036.127 872.842,1036.401 873.011,1036.658Z" style="fill:rgb(255,248,240);"/>
                        </g>
                        <g transform="matrix(0.782079,0.623179,-0.623179,0.782079,1032.632828,-425.739172)">
                            <path d="M873.088,1011.052C876.59,1011.052 879.985,1012.681 882.611,1015.924C885.287,1019.23 887.213,1024.505 887.213,1030.518C887.213,1036.564 885.264,1041.869 882.572,1045.192C879.912,1048.478 876.482,1050.137 872.934,1050.137C869.431,1050.137 866.037,1048.507 863.411,1045.265C860.735,1041.959 858.809,1036.684 858.809,1030.671C858.809,1024.625 860.758,1019.32 863.449,1015.996C866.11,1012.711 869.539,1011.052 873.088,1011.052ZM873.055,1036.679C873.223,1036.425 873.384,1036.151 873.489,1035.91C874.128,1034.443 874.469,1032.627 874.469,1030.671C874.469,1028.702 874.123,1026.874 873.48,1025.397C873.358,1025.117 873.163,1024.799 872.966,1024.509C872.799,1024.764 872.637,1025.037 872.532,1025.279C871.894,1026.746 871.552,1028.561 871.552,1030.518C871.552,1032.487 871.899,1034.315 872.542,1035.791C872.664,1036.071 872.859,1036.39 873.055,1036.679Z" style="fill:rgb(255,248,240);"/>
                        </g>
                        <g transform="matrix(1.215484,0.355117,-0.355117,1.215484,344.714528,-672.033732)">
                            <path d="M873.045,1012.408C876.19,1012.408 879.226,1013.898 881.584,1016.811C884.104,1019.923 885.892,1024.899 885.892,1030.561C885.892,1036.237 884.094,1041.226 881.568,1044.346C879.194,1047.278 876.143,1048.781 872.977,1048.781C869.831,1048.781 866.796,1047.29 864.438,1044.378C861.917,1041.266 860.129,1036.289 860.129,1030.628C860.129,1024.952 861.928,1019.962 864.454,1016.842C866.828,1013.911 869.879,1012.408 873.045,1012.408ZM872.977,1022.405C872.782,1022.405 872.701,1022.644 872.546,1022.806C872.282,1023.082 872.045,1023.413 871.826,1023.782C870.798,1025.513 870.232,1027.921 870.232,1030.561C870.232,1033.21 870.803,1035.626 871.834,1037.364C872.113,1037.833 872.418,1038.244 872.77,1038.552C872.87,1038.639 872.924,1038.784 873.045,1038.784C873.24,1038.784 873.321,1038.545 873.476,1038.383C873.74,1038.107 873.977,1037.775 874.196,1037.407C875.224,1035.675 875.79,1033.268 875.79,1030.628C875.79,1027.979 875.219,1025.562 874.187,1023.825C873.909,1023.355 873.604,1022.945 873.251,1022.637C873.151,1022.549 873.097,1022.405 872.977,1022.405Z" style="fill:rgb(255,248,240);"/>
                        </g>
                        <g transform="matrix(1.215484,0.355117,-0.355117,1.215484,367.753356,-663.018541)">
                            <path d="M873.045,1012.408C876.19,1012.408 879.226,1013.898 881.584,1016.811C884.104,1019.923 885.892,1024.899 885.892,1030.561C885.892,1036.237 884.094,1041.226 881.568,1044.346C879.194,1047.278 876.143,1048.781 872.977,1048.781C869.831,1048.781 866.796,1047.29 864.438,1044.378C861.917,1041.266 860.129,1036.289 860.129,1030.628C860.129,1024.952 861.928,1019.962 864.454,1016.842C866.828,1013.911 869.879,1012.408 873.045,1012.408ZM872.977,1022.405C872.782,1022.405 872.701,1022.644 872.546,1022.806C872.282,1023.082 872.045,1023.413 871.826,1023.782C870.798,1025.513 870.232,1027.921 870.232,1030.561C870.232,1033.21 870.803,1035.626 871.834,1037.364C872.113,1037.833 872.418,1038.244 872.77,1038.552C872.87,1038.639 872.924,1038.784 873.045,1038.784C873.24,1038.784 873.321,1038.545 873.476,1038.383C873.74,1038.107 873.977,1037.775 874.196,1037.407C875.224,1035.675 875.79,1033.268 875.79,1030.628C875.79,1027.979 875.219,1025.562 874.187,1023.825C873.909,1023.355 873.604,1022.945 873.251,1022.637C873.151,1022.549 873.097,1022.405 872.977,1022.405Z" style="fill:rgb(255,248,240);"/>
                        </g>
                    </g>
                    <g>
                        <g transform="matrix(1,0,0,1,591.110558,-157.831746)">
                            <path d="M729.191,1062.069C729.193,1062.069 736.538,1062.924 736.538,1062.924C736.824,1062.957 737.107,1063.012 737.385,1063.088C737.385,1063.088 749.673,1066.505 752.367,1078.417C754.126,1083.288 765.306,1117.982 732.178,1131.484L732.12,1131.507C732.12,1131.507 713.526,1138.906 690.12,1136.324C687.625,1136.355 655.181,1137.638 633.805,1183.399C633.304,1184.473 632.484,1185.366 631.457,1185.956L535.849,1240.96L535.788,1240.994C535.788,1240.994 508.679,1256.148 483.058,1264.598C471.485,1268.415 460.178,1270.811 451.552,1270.215C449.061,1270.043 446.964,1268.287 446.357,1265.866C445.749,1263.444 446.77,1260.906 448.885,1259.579L564.611,1186.978C564.68,1186.934 564.75,1186.892 564.822,1186.852C564.822,1186.852 604.828,1164.078 629.755,1145.216C635.879,1140.583 641.071,1136.22 644.395,1132.515C645.81,1130.939 646.958,1129.726 647.156,1128.618C647.635,1125.937 649.925,1123.957 652.647,1123.869C652.647,1123.869 660.328,1123.621 667.536,1120.728C673.369,1118.386 679.176,1114.134 677.641,1105.565C677.503,1104.79 677.524,1103.996 677.704,1103.23C677.704,1103.23 687.579,1061.629 728.581,1062.031C728.787,1062.033 728.99,1062.046 729.191,1062.069ZM736.179,1074.949C736.322,1075.035 736.465,1075.123 736.606,1075.212C737.301,1075.651 737.968,1076.125 738.605,1076.634C737.791,1075.874 736.919,1075.328 736.179,1074.949ZM741.533,1108.922C739.064,1112.698 735.706,1116.179 731.534,1119.032C736.469,1116.276 739.61,1112.727 741.533,1108.922ZM705.595,1125.176C698.699,1123.953 692.818,1120.345 689.462,1114.764C689.276,1114.455 689.1,1114.142 688.932,1113.826C687.813,1118.834 685.055,1122.737 681.473,1125.774C687.131,1124.623 690.669,1124.799 690.669,1124.799C690.821,1124.805 690.973,1124.816 691.123,1124.833C696.275,1125.419 701.164,1125.453 705.595,1125.176ZM659.637,1134.663C658.6,1134.831 657.647,1134.961 656.807,1135.062C656.304,1135.95 655.694,1136.876 654.968,1137.828C656.542,1136.674 658.101,1135.622 659.637,1134.663ZM640.166,1151.746C639.051,1152.625 637.898,1153.515 636.713,1154.412C612.067,1173.06 572.971,1195.476 570.638,1196.809L480.656,1253.26C483.75,1252.206 486.863,1251.056 489.938,1249.858C510.511,1241.841 529.324,1231.396 530.132,1230.945L624.145,1176.86C629.094,1166.603 634.559,1158.363 640.166,1151.746ZM709.35,1086.619C703.513,1090.129 699.519,1095.315 698.314,1100.578C697.652,1103.473 697.874,1106.376 699.345,1108.822C700.816,1111.269 703.275,1112.826 706.143,1113.598C711.356,1115.002 717.81,1113.907 723.647,1110.397C729.484,1106.888 733.478,1101.701 734.683,1096.439C735.346,1093.543 735.124,1090.641 733.653,1088.194C732.849,1086.858 731.747,1085.782 730.446,1084.96C725.013,1081.526 716.677,1082.214 709.35,1086.619Z" style="fill:rgb(255,248,240);"/>
                        </g>
                        <g transform="matrix(1,0,0,1,591.110558,-158.982155)">
                            <path d="M631.852,1164.391L670.32,1166.517C675.486,1160.218 690.293,1143.41 707.724,1134.757C723.646,1126.852 741.541,1125.422 757.089,1141.727C757.248,1141.894 757.398,1142.071 757.536,1142.257C757.536,1142.257 762.67,1149.027 762.1,1158.322C761.815,1162.956 760.189,1168.316 755.562,1173.704C757.038,1175.343 758.657,1177.366 760.083,1179.662C762.96,1184.295 764.967,1189.966 764.233,1195.855C763.47,1201.983 759.852,1208.685 750.071,1214.53C748.581,1215.589 741.576,1220.095 730.126,1220.212C718.447,1220.33 701.52,1215.876 681.169,1196.285C680.709,1195.842 680.326,1195.326 680.035,1194.758C680.035,1194.758 667.29,1172.082 620.603,1203.883C620.421,1204.007 620.233,1204.121 620.038,1204.223L526.093,1253.542C522.14,1256.469 493.208,1276.542 451.097,1270.247C448.631,1269.878 446.681,1267.966 446.265,1265.507C445.848,1263.049 447.059,1260.601 449.267,1259.441L628.851,1165.044C629.774,1164.559 630.811,1164.334 631.852,1164.391ZM675.694,1177.521C677.467,1178.184 679.052,1178.953 680.463,1179.776C679.373,1177.846 679.477,1175.425 680.803,1173.58C686.986,1164.973 696.455,1154.744 705.949,1150.53C719.927,1143.966 734.072,1144.544 741.308,1150.563C745.73,1154.242 748.071,1159.823 747.33,1165.538C749.508,1162.758 750.44,1160.063 750.59,1157.616C750.846,1153.443 748.986,1150.219 748.44,1149.37C737.226,1137.877 724.305,1139.399 712.852,1145.085C693.354,1154.765 677.588,1175.896 677.588,1175.896C677.075,1176.58 676.426,1177.13 675.694,1177.521ZM746.471,1180.836C746.501,1180.898 746.53,1180.96 746.559,1181.022C749.742,1187.899 747.857,1195.489 742.627,1200.331C736.055,1206.416 722.973,1207.911 709.41,1203.037C730.672,1214.08 743.387,1205.133 743.387,1205.133C743.567,1204.996 743.755,1204.87 743.95,1204.755C749.67,1201.382 752.349,1197.971 752.791,1194.429C753.188,1191.245 751.842,1188.25 750.287,1185.745C749.074,1183.791 747.669,1182.11 746.471,1180.836ZM650.089,1176.947L632.806,1175.993L473.506,1259.727C501.742,1257.892 519.432,1244.124 519.432,1244.124C519.708,1243.907 520.003,1243.716 520.314,1243.553L614.385,1194.168C628.698,1184.454 640.485,1179.298 650.089,1176.947ZM729.855,1170.487C732.842,1169.081 734.756,1167.339 735.55,1165.354C736.428,1163.16 735.641,1160.849 733.933,1159.427C732.357,1158.117 730.134,1157.497 727.602,1157.294C722.675,1156.898 716.731,1158.199 710.81,1160.987C710.767,1161.007 710.723,1161.027 710.68,1161.046C704.113,1163.942 697.736,1170.518 692.84,1176.749C698.059,1182.712 704.776,1188.941 711.486,1191.485C711.531,1191.502 711.575,1191.519 711.62,1191.537C717.68,1194.008 723.685,1194.992 728.583,1194.336C731.101,1193.999 733.289,1193.262 734.793,1191.87C736.423,1190.36 737.086,1188.01 736.094,1185.866C735.196,1183.925 733.192,1182.288 730.135,1181.042C728.016,1180.178 726.609,1178.143 726.548,1175.856C726.487,1173.568 727.785,1171.462 729.855,1170.487Z" style="fill:rgb(255,248,240);"/>
                        </g>
                        <g transform="matrix(1,0,0,1,591.110558,-157.831746)">
                            <path d="M561.122,1190.936L565.381,1188.264C565.416,1188.243 565.451,1188.221 565.486,1188.2L563.92,1185.643L565.5,1188.192C565.529,1188.174 565.559,1188.157 565.588,1188.14C565.597,1188.136 565.607,1188.13 565.619,1188.123L564.08,1185.549C564.08,1185.549 603.986,1162.835 628.851,1144.021C634.884,1139.456 640.004,1135.164 643.28,1131.514C644.455,1130.204 645.516,1129.275 645.68,1128.355C646.283,1124.976 649.169,1122.481 652.599,1122.371C652.599,1122.371 660.017,1122.131 666.978,1119.337C672.207,1117.237 677.542,1113.512 676.166,1105.829C675.991,1104.853 676.018,1103.852 676.244,1102.887L676.245,1102.883C676.245,1102.883 686.423,1060.118 728.596,1060.532C728.854,1060.534 729.109,1060.551 729.361,1060.58L729.365,1060.58L736.711,1061.435C737.072,1061.477 737.429,1061.546 737.779,1061.641L737.789,1061.644C737.789,1061.644 750.857,1065.297 753.8,1077.963C755.642,1083.051 767.038,1118.895 732.744,1132.872C732.73,1132.878 732.715,1132.884 732.7,1132.89L733.608,1132.429C733.598,1132.436 733.581,1132.447 733.556,1132.464C733.321,1132.606 733.076,1132.732 732.823,1132.839C733.207,1132.676 733.451,1132.531 733.556,1132.464C733.581,1132.448 733.606,1132.433 733.631,1132.417C735.264,1131.393 736.218,1129.673 736.324,1127.868C735.068,1128.554 733.728,1129.203 732.299,1129.81L733.631,1132.417L733.608,1132.429C733.613,1132.425 733.616,1132.423 733.616,1132.423L732.674,1132.9C732.674,1132.9 713.817,1140.419 690.052,1137.825C686.776,1137.891 655.773,1139.914 635.163,1184.034C634.532,1185.386 633.498,1186.511 632.204,1187.256L536.597,1242.259C536.66,1242.223 536.723,1242.185 536.784,1242.146C538.564,1241.031 539.527,1239.1 539.487,1237.138L535.246,1239.577L536.784,1242.146L536.769,1242.155L536.52,1242.303C536.52,1242.303 509.276,1257.53 483.528,1266.022C471.746,1269.907 460.23,1272.318 451.448,1271.711C448.31,1271.494 445.668,1269.282 444.903,1266.23C444.138,1263.179 445.424,1259.981 448.088,1258.31L563.814,1185.708C561.966,1186.867 561.002,1188.902 561.122,1190.936ZM536.597,1242.259C536.582,1242.267 536.567,1242.276 536.551,1242.285L536.769,1242.155C536.769,1242.155 536.709,1242.194 536.597,1242.259ZM696.986,1123.78C694.01,1122.184 691.436,1120.043 689.446,1117.412C688.563,1119.702 687.333,1121.741 685.846,1123.552C688.931,1123.205 690.726,1123.301 690.721,1123.301C690.912,1123.308 691.103,1123.322 691.293,1123.344C693.232,1123.564 695.134,1123.705 696.986,1123.78Z" style="fill:rgb(255,248,240);"/>
                        </g>
                        <g transform="matrix(1,0,0,1,591.110558,-158.982155)">
                            <path d="M631.534,1170.148L672.975,1172.437C672.975,1172.437 719.377,1110.533 752.916,1145.706C752.916,1145.706 763.648,1160.084 747.326,1173.723C747.326,1173.723 773.039,1194.293 746.879,1209.721C746.879,1209.721 722.619,1228.185 685.167,1192.131C685.167,1192.131 670.287,1163.064 617.358,1199.118L522.994,1248.658C522.994,1248.658 494.655,1270.929 451.949,1264.545L631.534,1170.148ZM732.312,1175.703C743.882,1170.255 743.61,1159.978 737.62,1154.995C731.631,1150.012 719.924,1150.323 708.354,1155.771C699.669,1159.6 691.134,1169.082 685.485,1176.944C691.543,1184.496 700.568,1193.512 709.443,1196.876C721.286,1201.704 732.993,1201.394 738.71,1196.1C744.427,1190.807 744.154,1180.531 732.312,1175.703Z" style="fill:rgb(82,28,13);"/>
                        </g>
                        <g transform="matrix(1,0,0,1,591.110558,-157.831746)">
                            <path d="M451.949,1264.463L567.675,1191.862C567.675,1191.862 650.102,1144.917 652.832,1129.632C652.832,1129.632 687.609,1128.517 683.317,1104.548C683.317,1104.548 692.035,1067.438 728.525,1067.796L735.872,1068.651C735.872,1068.651 745.028,1071.142 746.816,1080.03C746.816,1080.03 760.59,1113.678 730.002,1126.144C730.002,1126.144 712.473,1133.066 690.471,1130.562C690.471,1130.562 652.729,1129.265 628.581,1180.959L532.974,1235.962C532.974,1235.962 478.711,1266.313 451.949,1264.463ZM706.379,1081.678C694.185,1089.01 688.818,1102.504 694.403,1111.793C699.988,1121.082 714.423,1122.671 726.618,1115.339C738.813,1108.006 744.179,1094.512 738.594,1085.223C737.321,1083.106 735.588,1081.389 733.526,1080.086C726.544,1075.674 715.794,1076.017 706.379,1081.678Z" style="fill:rgb(140,56,33);"/>
                        </g>
                        <g transform="matrix(1,0,0,1,591.110558,-157.831746)">
                            <path d="M728.698,1066.307C728.698,1066.307 736.045,1067.162 736.045,1067.162C736.119,1067.171 736.193,1067.185 736.265,1067.204C736.265,1067.204 746.229,1069.935 748.258,1079.6C749.186,1081.997 761.309,1115.003 730.568,1127.533L730.553,1127.539C730.553,1127.539 712.741,1134.586 690.366,1132.059C688.786,1132.036 653.065,1132.088 629.94,1181.593C629.809,1181.872 629.596,1182.105 629.329,1182.258L533.722,1237.262L533.706,1237.271C533.706,1237.271 506.981,1252.216 481.722,1260.546C470.742,1264.167 460.03,1266.524 451.846,1265.959C451.198,1265.914 450.653,1265.458 450.495,1264.828C450.337,1264.198 450.603,1263.539 451.153,1263.194L566.878,1190.592L566.933,1190.559C566.933,1190.559 607.223,1167.616 632.33,1148.619C638.711,1143.79 644.106,1139.225 647.571,1135.365C649.671,1133.024 651.062,1131.013 651.356,1129.368C651.48,1128.671 652.076,1128.156 652.784,1128.134C652.784,1128.134 661.215,1127.863 669.126,1124.687C676.679,1121.655 683.828,1115.909 681.841,1104.813C681.805,1104.611 681.81,1104.405 681.857,1104.206C681.857,1104.206 690.876,1065.928 728.539,1066.297C728.593,1066.298 728.646,1066.301 728.698,1066.307ZM728.431,1069.294C695.029,1069.018 685.731,1101.226 684.848,1104.605C686.963,1117.27 678.932,1123.981 670.242,1127.47C663.612,1130.131 656.637,1130.872 653.988,1131.065C653.338,1132.874 651.912,1135.017 649.802,1137.368C646.239,1141.338 640.701,1146.044 634.139,1151.01C609.293,1169.809 569.655,1192.458 568.445,1193.148L457.171,1262.957C467.112,1262.328 479.589,1258.469 491.487,1253.833C512.562,1245.621 531.814,1234.893 532.235,1234.658L627.425,1179.895C652.077,1127.577 690.523,1129.063 690.523,1129.063C690.562,1129.065 690.602,1129.068 690.641,1129.072C712,1131.503 729.067,1124.9 729.445,1124.753C758.701,1112.822 745.429,1080.598 745.429,1080.598C745.393,1080.51 745.366,1080.419 745.347,1080.326C743.841,1072.842 736.517,1070.409 735.575,1070.126L728.431,1069.294ZM705.607,1080.393C715.565,1074.406 726.942,1074.152 734.327,1078.819C736.586,1080.246 738.483,1082.13 739.879,1084.451C745.826,1094.342 740.376,1108.816 727.39,1116.623C714.405,1124.431 699.066,1122.457 693.119,1112.565C687.171,1102.674 692.621,1088.201 705.607,1080.393ZM707.152,1082.963C695.747,1089.82 690.465,1102.333 695.688,1111.021C700.911,1119.708 714.441,1120.911 725.845,1114.054C737.25,1107.197 742.532,1094.683 737.309,1085.996C736.158,1084.081 734.589,1082.531 732.725,1081.353C726.146,1077.196 716.023,1077.629 707.152,1082.963Z" style="fill:rgb(82,28,13);"/>
                        </g>
                    </g>
                    <g transform="matrix(0.579196,0.523518,-0.523518,0.579196,1475.738628,66.728363)">
                        <ellipse cx="553.47" cy="1158.072" rx="8.944" ry="9.055" style="fill:rgb(140,56,33);stroke:rgb(82,28,13);stroke-width:0.71px;"/>
                    </g>
                    <g transform="matrix(0.579196,0.523518,-0.523518,0.579196,1539.414281,-8.213342)">
                        <path d="M552.304,1276.49L552.689,1276.234L553.124,1275.99L553.545,1275.764L553.995,1275.575L563.606,1290.427L563.161,1290.833L562.717,1291.213L562.201,1291.56L561.723,1291.865L552.304,1276.49Z" style="fill:rgb(82,28,13);"/>
                    </g>
                </g>
                <g transform="matrix(0.264372,0,0,0.264372,1205.522637,24.693244)">
                    <g transform="matrix(0.726955,1.455543,-1.473679,0.736013,2724.498191,-1714.283145)">
                        <ellipse cx="873.011" cy="1030.594" rx="7.83" ry="13.188" style="fill:rgb(82,28,13);"/>
                    </g>
                    <g transform="matrix(-0.349829,1.597018,-1.605557,-0.331443,3812.716169,-644.018305)">
                        <ellipse cx="873.011" cy="1030.594" rx="7.83" ry="13.188" style="fill:rgb(82,28,13);"/>
                    </g>
                    <g transform="matrix(0.360274,2.03056,-2.049388,0.377724,3675.589701,-1826.588697)">
                        <ellipse cx="873.011" cy="1030.594" rx="7.83" ry="13.188" style="fill:rgb(82,28,13);"/>
                    </g>
                    <g transform="matrix(0.360274,2.03056,-2.049388,0.377724,3679.052393,-1786.419403)">
                        <ellipse cx="873.011" cy="1030.594" rx="7.83" ry="13.188" style="fill:rgb(82,28,13);"/>
                    </g>
                </g>
            </g>
        </g>
    </g>
</svg>
