<svg width="61" height="61" viewBox="0 0 61 61" fill="none" xmlns="http://www.w3.org/2000/svg">
<path d="M21.0648 7.56822C24.0416 7.13936 27.195 10.3937 28.1032 14.8841C29.0113 19.3494 27.3716 23.3353 24.3948 23.7894C21.4432 24.2435 18.2645 20.9891 17.3311 16.4987C16.3977 12.0335 18.0879 8.04754 21.0648 7.56822ZM39.1023 7.56822C42.1043 8.04754 43.7693 12.0335 42.8863 16.4987C41.9277 20.9891 38.7743 24.2435 35.7975 23.7894C32.7954 23.3353 31.1557 19.3494 32.0891 14.8841C32.9973 10.3937 36.1507 7.13936 39.1023 7.56822ZM7.56816 19.1728C10.4441 17.9366 14.3543 20.1819 16.3977 24.0921C18.315 28.078 17.6591 32.2657 14.8084 33.5019C11.9577 34.738 8.07271 32.518 6.07975 28.5573C4.0868 24.5966 4.79316 20.3837 7.56816 19.1728ZM52.9773 19.1728C55.7523 20.3837 56.4586 24.5966 54.4657 28.5573C52.4727 32.518 48.5877 34.738 45.737 33.5019C42.8863 32.2657 42.2304 28.078 44.1477 24.0921C46.1911 20.1819 50.1013 17.9366 52.9773 19.1728ZM48.7643 46.3678C48.8652 48.7391 47.0489 51.3628 44.8793 52.3466C40.3636 54.4153 35.0154 50.1266 29.9952 50.1266C24.975 50.1266 19.5763 54.5919 15.1363 52.3466C12.6136 51.1105 10.8729 47.8309 11.2009 45.1064C11.655 41.3475 16.1707 39.3294 18.8448 36.5796C22.4018 33.0225 24.9245 26.3373 29.9952 26.3373C35.0407 26.3373 37.7148 32.9216 41.1204 36.5796C43.9207 39.6573 48.5877 42.2557 48.7643 46.3678Z" fill="#FFFAF4"/>
</svg>
