<?xml version="1.0" encoding="UTF-8" standalone="no"?>
<!DOCTYPE svg PUBLIC "-//W3C//DTD SVG 1.1//EN" "http://www.w3.org/Graphics/SVG/1.1/DTD/svg11.dtd">
<svg width="100%" height="100%" viewBox="0 0 871 1367" version="1.1" xmlns="http://www.w3.org/2000/svg" xmlns:xlink="http://www.w3.org/1999/xlink" xml:space="preserve" xmlns:serif="http://www.serif.com/" style="fill-rule:evenodd;clip-rule:evenodd;stroke-linecap:round;stroke-linejoin:round;stroke-miterlimit:1.5;">
    <g transform="matrix(1,0,0,1,-308.175148,-267.522484)">
        <path d="M416.118,1287.114C489.952,1119.605 668.42,706.606 714.861,558.683C761.301,410.76 859.616,277.359 859.616,277.359C899.14,243.059 1173.335,419.645 1173.335,419.645L1162.96,432.984L939.157,347.514L921.372,369.746L1143.693,471.89L1139.74,490.664L906.056,398.771L895.187,421.497L1121.461,524.259L1115.038,541.057L877.896,453.116L867.521,476.336L1096.264,578.851L1088.853,597.131L854.676,510.673L845.783,531.917L1072.056,634.184L1069.092,654.934L828.985,564.524L821.574,587.25L1049.33,690.011L1043.895,705.327L806.753,619.733L799.836,640.977L1028.086,744.233L1024.133,760.537L788.473,674.573L777.11,699.275L1006.842,801.048L999.925,818.34L763.771,733.858L756.854,752.632L983.622,855.517L980.657,874.291L742.033,784.868L731.164,812.535L961.884,913.814L957.437,931.6L719.801,841.19L708.932,864.904L938.663,968.653L932.205,985.502L701.766,899.499L689.878,925.806L919.558,1028.631L915.258,1044.82L678.495,957.298L669.202,983.352L909.278,1087.565L896.7,1105.718C896.7,1105.718 833.337,1094.164 702.107,1078.726C613.066,1068.251 554.996,1322.877 554.996,1322.877C482.845,1508.879 542.004,1664.796 376.069,1621.637C234.861,1584.91 370.822,1389.878 416.118,1287.114ZM413.162,1488.614C391.647,1488.614 374.179,1506.601 374.179,1528.756C374.179,1550.91 391.647,1568.897 413.162,1568.897C434.678,1568.897 452.145,1550.91 452.145,1528.756C452.145,1506.601 434.678,1488.614 413.162,1488.614Z" style="fill:rgb(255,155,69);stroke:rgb(213,69,27);stroke-width:10.83px;"/>
    </g>
</svg>
